new Crispy Bold-Condensed.ufo
<glyph name="exclam" format="2">
  <advance width="318"/>
  <unicode hex="0021"/>
  <outline>
    <contour>
      <point x="42" y="328" type="line" identifier="1m237t4hyw"/>
      <point x="287" y="328" type="line" identifier="S4rO5KuHiL"/>
      <point x="318" y="395" type="line"/>
      <point x="318" y="1600" type="line" identifier="zfocDyDTCM"/>
      <point x="73" y="1600" type="line" identifier="v7N4yg5XNk"/>
      <point x="42" y="1533" type="line"/>
    </contour>
    <component base="period" xOffset="7"/>
  </outline>
</glyph>
<glyph name="comma" format="2">
  <advance width="328"/>
  <unicode hex="002C"/>
  <outline>
    <contour>
      <point x="191" y="-223" type="line"/>
      <point x="275" y="0" type="line"/>
      <point x="275" y="219" type="line"/>
      <point x="34" y="219" type="line"/>
      <point x="2" y="165" type="line"/>
      <point x="2" y="0" type="line"/>
      <point x="152" y="0" type="line"/>
      <point x="152" y="-223" type="line"/>
    </contour>
  </outline>
</glyph>
<glyph name="period" format="2">
  <advance width="372"/>
  <unicode hex="002E"/>
  <outline>
    <contour>
      <point x="287" y="0" type="line" identifier="1m237t4hyw"/>
      <point x="320" y="59" type="line" identifier="v7N4yg5XNk"/>
      <point x="320" y="256" type="line"/>
      <point x="73" y="256" type="line" identifier="zfocDyDTCM"/>
      <point x="41" y="198" type="line"/>
      <point x="41" y="0" type="line" identifier="S4rO5KuHiL"/>
    </contour>
  </outline>
</glyph>
<glyph name="one" format="2">
  <advance width="832"/>
  <unicode hex="0031"/>
  <outline>
    <contour>
      <point x="55" y="0" type="line"/>
      <point x="779" y="0" type="line" identifier="CURJAw79Zl"/>
      <point x="779" y="227" type="line" identifier="0DUCJo8xIi"/>
      <point x="555" y="227" type="line" identifier="5nmxQXofSG"/>
      <point x="555" y="1600" type="line" identifier="4rjIeWbSbx"/>
      <point x="57" y="1600" type="line"/>
      <point x="57" y="1373" type="line"/>
      <point x="282" y="1373" type="line"/>
      <point x="282" y="227" type="line"/>
      <point x="55" y="227" type="line"/>
    </contour>
  </outline>
</glyph>
<glyph name="three" format="2">
  <advance width="1028"/>
  <unicode hex="0033"/>
  <outline>
    <contour>
      <point x="53" y="0" type="line" identifier="O9abUc1nmN"/>
      <point x="976" y="0" type="line" identifier="kMJYMTfXCq"/>
      <point x="976" y="901" type="line" identifier="su2XmdS8e8"/>
      <point x="936" y="901" type="line" identifier="JQaOzDQqlF"/>
      <point x="936" y="1600" type="line" identifier="xg8x2Ki40p"/>
      <point x="64" y="1600" type="line" identifier="pE1XSRiy68"/>
      <point x="64" y="1086" type="line" identifier="5lNstGRcSF"/>
      <point x="338" y="1086" type="line" identifier="AcE5xKDZfE"/>
      <point x="338" y="1375" type="line" identifier="7ogBYufWpl"/>
      <point x="663" y="1375" type="line" identifier="RHLvSX2Jv6"/>
      <point x="663" y="900" type="line" identifier="iic1IBkDqp"/>
      <point x="199" y="901" type="line" identifier="lRLJEhXMlO"/>
      <point x="199" y="678" type="line" identifier="8aKgEELrVU"/>
      <point x="702" y="678" type="line" identifier="Dm8zjmbhNr"/>
      <point x="702" y="225" type="line" identifier="xv9CFHiFgB"/>
      <point x="326" y="225" type="line" identifier="YajKQV3MHP"/>
      <point x="326" y="507" type="line" identifier="36SchVkwze"/>
      <point x="53" y="507" type="line" identifier="tVui9PiOjA"/>
    </contour>
  </outline>
</glyph>
<glyph name="four" format="2">
  <advance width="1062"/>
  <unicode hex="0034"/>
  <outline>
    <contour>
      <point x="660" y="0" type="line"/>
      <point x="933" y="0" type="line"/>
      <point x="933" y="679" type="line"/>
      <point x="1009" y="679" type="line"/>
      <point x="1009" y="906" type="line"/>
      <point x="933" y="906" type="line"/>
      <point x="933" y="1600" type="line"/>
      <point x="660" y="1600" type="line"/>
      <point x="660" y="906" type="line"/>
      <point x="326" y="906" type="line"/>
      <point x="326" y="979" type="line"/>
      <point x="326" y="1602" type="line"/>
      <point x="53" y="1602" type="line"/>
      <point x="53" y="978" type="line"/>
      <point x="53" y="679" type="line"/>
      <point x="660" y="679" type="line"/>
    </contour>
  </outline>
</glyph>
<glyph name="six" format="2">
  <advance width="1029"/>
  <unicode hex="0036"/>
  <outline>
    <contour>
      <point x="53" y="0" type="line" identifier="uiw6aBUf4P"/>
      <point x="976" y="0" type="line" identifier="jtYkxiUX6G"/>
      <point x="976" y="891" type="line" identifier="2G5L37c87I"/>
      <point x="326" y="891" type="line"/>
      <point x="326" y="1239" type="line"/>
      <point x="385" y="1375" type="line"/>
      <point x="702" y="1375" type="line"/>
      <point x="702" y="1083" type="line"/>
      <point x="976" y="1083" type="line" identifier="Wuidbv6mUe"/>
      <point x="976" y="1600" type="line" identifier="oGvEEuxnYv"/>
      <point x="195" y="1600" type="line" identifier="xR3pEHbMJx"/>
      <point x="53" y="1258" type="line" identifier="KnMArb0tv8"/>
    </contour>
    <contour>
      <point x="703" y="666" type="line"/>
      <point x="703" y="225" type="line"/>
      <point x="326" y="225" type="line"/>
      <point x="326" y="666" type="line"/>
    </contour>
  </outline>
</glyph>
<glyph name="seven" format="2">
  <advance width="1029"/>
  <unicode hex="0037"/>
  <outline>
    <contour>
      <point x="365" y="0" type="line"/>
      <point x="641" y="0" type="line" identifier="PiPrv7Kcoy"/>
      <point x="976" y="1222" type="line" identifier="PkvwNC9Tx1"/>
      <point x="976" y="1600" type="line" identifier="tgqM27bPOm"/>
      <point x="53" y="1600" type="line" identifier="36ml4xRICt"/>
      <point x="53" y="1060" type="line" identifier="aaDZsh5Mah"/>
      <point x="326" y="1060" type="line"/>
      <point x="326" y="1373" type="line"/>
      <point x="695" y="1373" type="line"/>
      <point x="695" y="1253" type="line"/>
    </contour>
  </outline>
</glyph>
<glyph name="B" format="2">
  <advance width="1057"/>
  <unicode hex="0042"/>
  <outline>
    <contour>
      <point x="72" y="0" type="line" identifier="hvY9r8RmLr"/>
      <point x="863" y="0" type="line" identifier="9QFpw7nfq7"/>
      <point x="1005" y="349" type="line"/>
      <point x="1005" y="910" type="line" identifier="543PerILpr"/>
      <point x="839" y="910" type="line" identifier="zhomauHW30"/>
      <point x="936" y="1103" type="line"/>
      <point x="936" y="1600" type="line" identifier="FaP204GrdB"/>
      <point x="72" y="1600" type="line" identifier="JEev70GAj6"/>
    </contour>
    <contour>
      <point x="345" y="226" type="line" identifier="jaMSiLrCua"/>
      <point x="345" y="686" type="line" identifier="XSrxNd2axx"/>
      <point x="731" y="686" type="line" identifier="lsRGatjQja"/>
      <point x="731" y="367" type="line"/>
      <point x="671" y="226" type="line" identifier="xhlDJ3CjD5"/>
    </contour>
    <contour>
      <point x="345" y="910" type="line" identifier="By7dfMihfe"/>
      <point x="345" y="1374" type="line" identifier="1p5hKrurVy"/>
      <point x="686" y="1374" type="line" identifier="Qby8aMtF2X"/>
      <point x="686" y="1085" type="line"/>
      <point x="591" y="910" type="line" identifier="xpxyvIzPoc"/>
    </contour>
  </outline>
</glyph>
<glyph name="C" format="2">
  <advance width="1031"/>
  <unicode hex="0043"/>
  <outline>
    <contour>
      <point x="53" y="0" type="line" identifier="7lPhzTnk2Z"/>
      <point x="958" y="0" type="line" identifier="qJVLZGnkwh"/>
      <point x="958" y="532" type="line" identifier="nDnDHzAMXL"/>
      <point x="684" y="532" type="line" identifier="QX1V08aTu0"/>
      <point x="684" y="227" type="line" identifier="Y750RHTvDj"/>
      <point x="326" y="227" type="line" identifier="L2LsGnXiZ2"/>
      <point x="326" y="1194" type="line" identifier="sUWsr03vF4"/>
      <point x="388" y="1373" type="line" identifier="dbOUe6OhxL"/>
      <point x="685" y="1373" type="line" identifier="5BjRbcud80"/>
      <point x="685" y="1055" type="line" identifier="fNVDqwQo2o"/>
      <point x="958" y="1055" type="line" identifier="wLqQQx7QVN"/>
      <point x="958" y="1600" type="line" identifier="9eJelv8BOw"/>
      <point x="194" y="1600" type="line" identifier="lfZev3ICaC"/>
      <point x="53" y="1246" type="line" identifier="V1EWIdPahq"/>
    </contour>
  </outline>
</glyph>
<glyph name="E" format="2">
  <advance width="981"/>
  <unicode hex="0045"/>
  <outline>
    <contour>
      <point x="72" y="0" type="line" identifier="fZynkQ4XHB"/>
      <point x="909" y="0" type="line" identifier="FAQNpgUPxV"/>
      <point x="909" y="541" type="line" identifier="gHI0YjrPxR"/>
      <point x="670" y="541" type="line" identifier="gxCIuXb4el"/>
      <point x="670" y="225" type="line" identifier="5cgTYOhATF"/>
      <point x="345" y="225" type="line" identifier="bWs42DaCgU"/>
      <point x="345" y="686" type="line" identifier="VtD2aADJmn"/>
      <point x="722" y="686" type="line" identifier="PpbsFdHAnS"/>
      <point x="722" y="911" type="line" identifier="8WuC5p8Ax5"/>
      <point x="345" y="911" type="line" identifier="m39IWn9ntA"/>
      <point x="345" y="1375" type="line" identifier="gQ21I4SHQg"/>
      <point x="669" y="1375" type="line" identifier="eqNb2VTwYs"/>
      <point x="669" y="1059" type="line" identifier="mLmcFoJA4m"/>
      <point x="908" y="1059" type="line" identifier="e79n7CoPy1"/>
      <point x="908" y="1600" type="line" identifier="qYRmo14Il5"/>
      <point x="72" y="1600" type="line" identifier="HmJIcnLWfC"/>
    </contour>
  </outline>
</glyph>
<glyph name="M" format="2">
  <advance width="1476"/>
  <unicode hex="004D"/>
  <outline>
    <contour>
      <point x="536" y="377" type="line" identifier="0Dn4Xpf57M"/>
      <point x="343" y="1375" type="line"/>
      <point x="306" y="1376" type="line"/>
      <point x="306" y="0" type="line"/>
      <point x="72" y="0" type="line"/>
      <point x="72" y="1600" type="line"/>
      <point x="547" y="1600" type="line"/>
      <point x="714" y="589" type="line"/>
      <point x="760" y="589" type="line" identifier="9aKZPM0HPh"/>
      <point x="930" y="1600" type="line"/>
      <point x="1404" y="1600" type="line"/>
      <point x="1404" y="0" type="line"/>
      <point x="1170" y="0" type="line"/>
      <point x="1170" y="1376" type="line"/>
      <point x="1133" y="1376" type="line"/>
      <point x="937" y="377" type="line" identifier="spdoeeCFft"/>
    </contour>
  </outline>
</glyph>
<glyph name="O" format="2">
  <advance width="1026"/>
  <unicode hex="004F"/>
  <outline>
    <contour>
      <point x="974" y="350" type="line" identifier="ob8US3C311"/>
      <point x="974" y="1600" type="line" identifier="c9brEFyXXA"/>
      <point x="194" y="1600" type="line" identifier="a4Ql951bxG"/>
      <point x="53" y="1246" type="line" identifier="kbL68Qh2zr"/>
      <point x="53" y="0" type="line" identifier="U6WibAQAUl"/>
      <point x="832" y="0" type="line" identifier="dfgNHTgBfR"/>
    </contour>
    <contour>
      <point x="700" y="369" type="line" identifier="SnrsQD5TLy"/>
      <point x="642" y="227" type="line" identifier="jjd5iRDXWT"/>
      <point x="326" y="227" type="line" identifier="YbQKHpAtYn"/>
      <point x="326" y="1229" type="line" identifier="vdfGLkskOQ"/>
      <point x="384" y="1373" type="line" identifier="qXlVxK5ShE"/>
      <point x="700" y="1373" type="line" identifier="g70r2r6DwY"/>
    </contour>
  </outline>
</glyph>
<glyph name="P" format="2">
  <advance width="1042"/>
  <unicode hex="0050"/>
  <outline>
    <contour>
      <point x="72" y="0" type="line" identifier="EG08jqU5fb"/>
      <point x="345" y="0" type="line" identifier="osRzIFK2Cu"/>
      <point x="345" y="661" type="line" identifier="hIFVovVRwe"/>
      <point x="970" y="661" type="line" identifier="Tt6D8zYZmU"/>
      <point x="970" y="1600" type="line" identifier="6xW04auDFu"/>
      <point x="72" y="1600" type="line" identifier="eETO5GBD5v"/>
    </contour>
    <contour>
      <point x="345" y="889" type="line" identifier="PIBVN1PGv1"/>
      <point x="345" y="1373" type="line" identifier="IZIZQr2gYJ"/>
      <point x="697" y="1373" type="line" identifier="2c4LCF1E1R"/>
      <point x="697" y="889" type="line" identifier="1WCnzth1GX"/>
    </contour>
  </outline>
</glyph>
<glyph name="S" format="2">
  <advance width="996"/>
  <unicode hex="0053"/>
  <outline>
    <contour>
      <point x="53" y="0" type="line" identifier="09VlJ0BjUX"/>
      <point x="803" y="0" type="line" identifier="EagWihqFM8"/>
      <point x="944" y="342" type="line"/>
      <point x="944" y="919" type="line" identifier="KfNuQA7eZe"/>
      <point x="324" y="919" type="line" identifier="At364YZFEy"/>
      <point x="324" y="1220" type="line"/>
      <point x="384" y="1386" type="line"/>
      <point x="665" y="1386" type="line" identifier="3ZUkG35meB"/>
      <point x="665" y="1116" type="line" identifier="DTOJhFIl15"/>
      <point x="939" y="1116" type="line" identifier="9KDcrfQ5Ui"/>
      <point x="939" y="1600" type="line" identifier="SaF9ojRFrW"/>
      <point x="195" y="1600" type="line"/>
      <point x="54" y="1239" type="line"/>
      <point x="54" y="683" type="line" identifier="3sQ8t8BZ6b"/>
      <point x="670" y="683" type="line" identifier="yiV6OCBLHg"/>
      <point x="670" y="359" type="line"/>
      <point x="610" y="219" type="line" identifier="9kdl9SYsn8"/>
      <point x="326" y="219" type="line" identifier="yZDWuX8LLe"/>
      <point x="326" y="493" type="line" identifier="jYb9001DTm"/>
      <point x="53" y="493" type="line" identifier="ho4DrS0rdW"/>
    </contour>
  </outline>
</glyph>
<glyph name="W" format="2">
  <advance width="1476"/>
  <unicode hex="0057"/>
  <outline>
    <contour>
      <point x="536" y="1223" type="line" identifier="0Dn4Xpf57M"/>
      <point x="343" y="225" type="line"/>
      <point x="306" y="224" type="line"/>
      <point x="306" y="1600" type="line"/>
      <point x="72" y="1600" type="line"/>
      <point x="72" y="0" type="line"/>
      <point x="547" y="0" type="line"/>
      <point x="714" y="1011" type="line"/>
      <point x="760" y="1011" type="line" identifier="9aKZPM0HPh"/>
      <point x="930" y="0" type="line"/>
      <point x="1404" y="0" type="line"/>
      <point x="1404" y="1600" type="line"/>
      <point x="1170" y="1600" type="line"/>
      <point x="1170" y="224" type="line"/>
      <point x="1133" y="224" type="line"/>
      <point x="937" y="1223" type="line" identifier="spdoeeCFft"/>
    </contour>
  </outline>
</glyph>
<glyph name="X" format="2">
  <advance width="1026"/>
  <unicode hex="0058"/>
  <outline>
    <contour>
      <point x="53" y="0" type="line"/>
      <point x="326" y="0" type="line"/>
      <point x="326" y="686" type="line"/>
      <point x="404" y="685" type="line"/>
      <point x="613" y="685" type="line"/>
      <point x="700" y="626" type="line"/>
      <point x="700" y="0" type="line"/>
      <point x="973" y="0" type="line"/>
      <point x="973" y="669" type="line"/>
      <point x="801" y="783" type="line"/>
      <point x="801" y="801" type="line"/>
      <point x="969" y="801" type="line"/>
      <point x="969" y="1600" type="line"/>
      <point x="693" y="1600" type="line"/>
      <point x="693" y="913" type="line"/>
      <point x="622" y="913" type="line"/>
      <point x="408" y="913" type="line"/>
      <point x="330" y="968" type="line"/>
      <point x="330" y="1600" type="line"/>
      <point x="56" y="1600" type="line"/>
      <point x="56" y="929" type="line"/>
      <point x="222" y="817" type="line"/>
      <point x="222" y="800" type="line"/>
      <point x="53" y="800" type="line"/>
    </contour>
  </outline>
</glyph>
<glyph name="B.skinnymiddle" format="2">
  <advance width="1057"/>
  <outline>
    <contour>
      <point x="72" y="0" type="line" identifier="hvY9r8RmLr"/>
      <point x="863" y="0" type="line" identifier="9QFpw7nfq7"/>
      <point x="1005" y="349" type="line"/>
      <point x="1005" y="908" type="line" identifier="543PerILpr"/>
      <point x="832" y="908" type="line" identifier="zhomauHW30"/>
      <point x="936" y="1103" type="line"/>
      <point x="936" y="1600" type="line" identifier="FaP204GrdB"/>
      <point x="72" y="1600" type="line" identifier="JEev70GAj6"/>
    </contour>
    <contour>
      <point x="345" y="226" type="line" identifier="jaMSiLrCua"/>
      <point x="345" y="689" type="line" identifier="XSrxNd2axx"/>
      <point x="731" y="689" type="line" identifier="lsRGatjQja"/>
      <point x="731" y="367" type="line"/>
      <point x="671" y="226" type="line" identifier="xhlDJ3CjD5"/>
    </contour>
    <contour>
      <point x="345" y="907" type="line" identifier="By7dfMihfe"/>
      <point x="345" y="1374" type="line" identifier="1p5hKrurVy"/>
      <point x="686" y="1374" type="line" identifier="Qby8aMtF2X"/>
      <point x="686" y="1085" type="line"/>
      <point x="583" y="907" type="line" identifier="xpxyvIzPoc"/>
    </contour>
  </outline>
</glyph>
<glyph name="C.wide" format="2">
  <advance width="1046"/>
  <outline>
    <contour>
      <point x="68" y="0" type="line" identifier="7lPhzTnk2Z"/>
      <point x="993" y="0" type="line" identifier="qJVLZGnkwh"/>
      <point x="993" y="227" type="line" identifier="Y750RHTvDj"/>
      <point x="342" y="227" type="line" identifier="L2LsGnXiZ2"/>
      <point x="342" y="1110" type="line" identifier="sUWsr03vF4"/>
      <point x="410" y="1373" type="line" identifier="dbOUe6OhxL"/>
      <point x="992" y="1373" type="line" identifier="5BjRbcud80"/>
      <point x="992" y="1600" type="line" identifier="9eJelv8BOw"/>
      <point x="184" y="1600" type="line" identifier="lfZev3ICaC"/>
      <point x="68" y="1134" type="line" identifier="V1EWIdPahq"/>
    </contour>
  </outline>
</glyph>
<glyph name="F.wide" format="2">
  <advance width="994"/>
  <outline>
    <contour>
      <point x="72" y="0" type="line" identifier="oAgH2tA6DJ"/>
      <point x="345" y="0" type="line" identifier="zCZyMcW5ho"/>
      <point x="345" y="569" type="line" identifier="yHYqkMd7LI"/>
      <point x="863" y="569" type="line" identifier="NmB7yyQuio"/>
      <point x="863" y="796" type="line" identifier="wQk2C8zPHh"/>
      <point x="345" y="796" type="line" identifier="4cFHKQfHDt"/>
      <point x="345" y="1373" type="line" identifier="ZvzwyrcwpS"/>
      <point x="922" y="1373" type="line" identifier="4E754ovOIe"/>
      <point x="922" y="1600" type="line" identifier="NUrIjqOB7J"/>
      <point x="72" y="1600" type="line" identifier="TBAYuCfUFX"/>
    </contour>
  </outline>
</glyph>
<glyph name="G.wideskinny" format="2">
  <advance width="1051"/>
  <outline>
    <contour>
      <point x="53" y="0" type="line" identifier="7lPhzTnk2Z"/>
      <point x="997" y="0" type="line" identifier="qJVLZGnkwh"/>
      <point x="997" y="859" type="line" identifier="uek1NNj7De"/>
      <point x="575" y="859" type="line" identifier="qcvimxjndX"/>
      <point x="575" y="679" type="line" identifier="EARaY3Su65"/>
      <point x="726" y="679" type="line" identifier="4m6dHLVhZq"/>
      <point x="726" y="226" type="line" identifier="Y750RHTvDj"/>
      <point x="326" y="226" type="line" identifier="L2LsGnXiZ2"/>
      <point x="326" y="1142" type="line" identifier="sUWsr03vF4"/>
      <point x="387" y="1374" type="line" identifier="dbOUe6OhxL"/>
      <point x="996" y="1374" type="line" identifier="5BjRbcud80"/>
      <point x="996" y="1600" type="line" identifier="9eJelv8BOw"/>
      <point x="151" y="1600" type="line" identifier="lfZev3ICaC"/>
      <point x="53" y="1158" type="line" identifier="V1EWIdPahq"/>
    </contour>
  </outline>
</glyph>
<glyph name="L.wide" format="2">
  <advance width="938"/>
  <outline>
    <contour>
      <point x="72" y="0" type="line" identifier="XkJNfQlnnt"/>
      <point x="879" y="0" type="line" identifier="82EXZEgt46"/>
      <point x="879" y="227" type="line" identifier="cqpSxwFiM3"/>
      <point x="345" y="227" type="line" identifier="MbxRZRd8vz"/>
      <point x="345" y="1600" type="line" identifier="lYiaKSKITt"/>
      <point x="72" y="1600" type="line" identifier="XFf4mMUzYo"/>
    </contour>
  </outline>
</glyph>
<glyph name="N.wide" format="2">
  <advance width="1210"/>
  <outline>
    <contour>
      <point x="67" y="0" type="line" identifier="CkwYPPvJLv"/>
      <point x="340" y="0" type="line" identifier="oHTJsN7drZ"/>
      <point x="340" y="1299" type="line" identifier="wfBbYd10Pm"/>
      <point x="384" y="1299" type="line" identifier="MEnBDHq6zU"/>
      <point x="860" y="0" type="line" identifier="3Nbopwznvn"/>
      <point x="1179" y="0" type="line" identifier="uKfuudIUvA"/>
      <point x="1179" y="1600" type="line" identifier="XRdLFXiM4t"/>
      <point x="905" y="1600" type="line" identifier="MUSJPjCIXg"/>
      <point x="905" y="317" type="line" identifier="VILP20cFmq"/>
      <point x="864" y="317" type="line" identifier="z5b04GDwRN"/>
      <point x="399" y="1600" type="line" identifier="LL64NQ6WBE"/>
      <point x="67" y="1600" type="line" identifier="dzUaaP1sjt"/>
    </contour>
  </outline>
</glyph>
<glyph name="P.wide" format="2">
  <advance width="1022"/>
  <outline>
    <contour>
      <point x="56" y="0" type="line" identifier="EG08jqU5fb"/>
      <point x="330" y="0" type="line" identifier="osRzIFK2Cu"/>
      <point x="330" y="604" type="line" identifier="hIFVovVRwe"/>
      <point x="980" y="604" type="line" identifier="Tt6D8zYZmU"/>
      <point x="980" y="1600" type="line" identifier="6xW04auDFu"/>
      <point x="56" y="1600" type="line" identifier="eETO5GBD5v"/>
    </contour>
    <contour>
      <point x="330" y="837" type="line" identifier="PIBVN1PGv1"/>
      <point x="330" y="1373" type="line" identifier="IZIZQr2gYJ"/>
      <point x="707" y="1373" type="line" identifier="2c4LCF1E1R"/>
      <point x="707" y="837" type="line" identifier="1WCnzth1GX"/>
    </contour>
  </outline>
</glyph>
<glyph name="R.wide" format="2">
  <advance width="1034"/>
  <outline>
    <contour>
      <point x="693" y="0" type="line"/>
      <point x="967" y="0" type="line"/>
      <point x="841" y="685" type="line"/>
      <point x="587" y="685" type="line"/>
    </contour>
    <contour>
      <point x="72" y="0" type="line" identifier="EG08jqU5fb"/>
      <point x="345" y="0" type="line" identifier="osRzIFK2Cu"/>
      <point x="345" y="675" type="line" identifier="hIFVovVRwe"/>
      <point x="970" y="675" type="line" identifier="Tt6D8zYZmU"/>
      <point x="970" y="1600" type="line" identifier="6xW04auDFu"/>
      <point x="72" y="1600" type="line" identifier="eETO5GBD5v"/>
    </contour>
    <contour>
      <point x="345" y="902" type="line" identifier="PIBVN1PGv1"/>
      <point x="345" y="1373" type="line" identifier="IZIZQr2gYJ"/>
      <point x="697" y="1373" type="line" identifier="2c4LCF1E1R"/>
      <point x="697" y="902" type="line" identifier="1WCnzth1GX"/>
    </contour>
  </outline>
</glyph>
<glyph name="S.wide" format="2">
  <advance width="1014"/>
  <outline>
    <contour>
      <point x="54" y="0" type="line" identifier="09VlJ0BjUX"/>
      <point x="846" y="0" type="line" identifier="EagWihqFM8"/>
      <point x="961" y="341" type="line"/>
      <point x="961" y="917" type="line" identifier="KfNuQA7eZe"/>
      <point x="321" y="917" type="line" identifier="At364YZFEy"/>
      <point x="321" y="1221" type="line"/>
      <point x="384" y="1385" type="line"/>
      <point x="960" y="1385" type="line" identifier="3ZUkG35meB"/>
      <point x="960" y="1600" type="line" identifier="SaF9ojRFrW"/>
      <point x="173" y="1600" type="line"/>
      <point x="54" y="1238" type="line"/>
      <point x="54" y="681" type="line" identifier="3sQ8t8BZ6b"/>
      <point x="690" y="681" type="line" identifier="yiV6OCBLHg"/>
      <point x="690" y="358" type="line"/>
      <point x="630" y="219" type="line" identifier="9kdl9SYsn8"/>
      <point x="54" y="219" type="line" identifier="yZDWuX8LLe"/>
    </contour>
  </outline>
</glyph>
<glyph name="S.wideskinny" format="2">
  <advance width="1005"/>
  <outline>
    <contour>
      <point x="54" y="0" type="line" identifier="09VlJ0BjUX"/>
      <point x="840" y="0" type="line" identifier="EagWihqFM8"/>
      <point x="952" y="341" type="line"/>
      <point x="952" y="915" type="line" identifier="KfNuQA7eZe"/>
      <point x="319" y="915" type="line" identifier="At364YZFEy"/>
      <point x="319" y="1220" type="line"/>
      <point x="381" y="1385" type="line"/>
      <point x="951" y="1385" type="line" identifier="3ZUkG35meB"/>
      <point x="951" y="1600" type="line" identifier="SaF9ojRFrW"/>
      <point x="170" y="1600" type="line"/>
      <point x="54" y="1238" type="line"/>
      <point x="54" y="683" type="line" identifier="3sQ8t8BZ6b"/>
      <point x="684" y="683" type="line" identifier="yiV6OCBLHg"/>
      <point x="684" y="359" type="line"/>
      <point x="624" y="219" type="line" identifier="9kdl9SYsn8"/>
      <point x="54" y="219" type="line" identifier="yZDWuX8LLe"/>
    </contour>
  </outline>
</glyph>
<glyph name="Z.wide" format="2">
  <advance width="1042"/>
  <outline>
    <contour>
      <point x="53" y="0" type="line"/>
      <point x="983" y="0" type="line" identifier="pzdvPTirLJ"/>
      <point x="983" y="225" type="line"/>
      <point x="329" y="225" type="line"/>
      <point x="329" y="411" type="line"/>
      <point x="985" y="1310" type="line" identifier="yyb1NCCI5w"/>
      <point x="985" y="1600" type="line" identifier="5FogYRSgkk"/>
      <point x="56" y="1600" type="line" identifier="svlFvrau4c"/>
      <point x="56" y="1375" type="line"/>
      <point x="707" y="1375" type="line"/>
      <point x="707" y="1317" type="line"/>
      <point x="53" y="430" type="line" identifier="teVKnpBcVb"/>
    </contour>
  </outline>
</glyph>
<glyph name="eight.skinnymiddle" format="2">
  <advance width="1085"/>
  <outline>
    <contour>
      <point x="681" y="690" type="line"/>
      <point x="753" y="618" type="line"/>
      <point x="753" y="225" type="line"/>
      <point x="332" y="225" type="line"/>
      <point x="332" y="618" type="line"/>
      <point x="404" y="690" type="line"/>
    </contour>
    <contour>
      <point x="930" y="796" type="line"/>
      <point x="930" y="804" type="line"/>
      <point x="1023" y="917" type="line"/>
      <point x="1023" y="1600" type="line"/>
      <point x="62" y="1600" type="line"/>
      <point x="62" y="917" type="line"/>
      <point x="155" y="804" type="line"/>
      <point x="155" y="796" type="line"/>
      <point x="58" y="680" type="line"/>
      <point x="58" y="0" type="line"/>
      <point x="1026" y="0" type="line"/>
      <point x="1026" y="680" type="line"/>
    </contour>
    <contour>
      <point x="404" y="910" type="line"/>
      <point x="335" y="979" type="line"/>
      <point x="335" y="1375" type="line"/>
      <point x="750" y="1375" type="line"/>
      <point x="749" y="979" type="line"/>
      <point x="681" y="910" type="line"/>
    </contour>
  </outline>
</glyph>
<glyph name="nine.wide" format="2">
  <advance width="1065"/>
  <outline>
    <contour>
      <point x="73" y="0" type="line" identifier="oGvEEuxnYv"/>
      <point x="1015" y="0" type="line" identifier="xR3pEHbMJx"/>
      <point x="1015" y="1600" type="line" identifier="uiw6aBUf4P"/>
      <point x="72" y="1600" type="line" identifier="jtYkxiUX6G"/>
      <point x="72" y="688" type="line" identifier="2G5L37c87I"/>
      <point x="741" y="688" type="line"/>
      <point x="741" y="226" type="line"/>
      <point x="73" y="226" type="line"/>
    </contour>
    <contour>
      <point x="345" y="912" type="line"/>
      <point x="345" y="1374" type="line"/>
      <point x="741" y="1374" type="line"/>
      <point x="741" y="912" type="line"/>
    </contour>
  </outline>
</glyph>
<glyph name="one.narrow" format="2">
  <advance width="655"/>
  <outline>
    <contour>
      <point x="584" y="0" type="line" identifier="5nmxQXofSG"/>
      <point x="584" y="1600" type="line" identifier="4rjIeWbSbx"/>
      <point x="53" y="1600" type="line"/>
      <point x="53" y="1373" type="line"/>
      <point x="310" y="1373" type="line"/>
      <point x="310" y="0" type="line"/>
    </contour>
  </outline>
</glyph>
<glyph name="seven.alt" format="2">
  <advance width="991"/>
  <outline>
    <contour>
      <point x="58" y="1600" type="line" identifier="jiO9eX9U07"/>
      <point x="932" y="1600" type="line" identifier="wgpFs1yguc"/>
      <point x="932" y="0" type="line" identifier="d5Di3vNzni"/>
      <point x="659" y="0" type="line" identifier="46RrD1WET2"/>
      <point x="659" y="1373" type="line" identifier="zFXsE8BUYG"/>
      <point x="329" y="1373" type="line" identifier="NQmE31PUns"/>
      <point x="329" y="882" type="line" identifier="qiXxY6YhCq"/>
      <point x="58" y="882" type="line" identifier="7exNZv1XSc"/>
    </contour>
  </outline>
</glyph>
<glyph name="six.wide" format="2">
  <advance width="1062"/>
  <outline>
    <contour>
      <point x="67" y="0" type="line" identifier="uiw6aBUf4P"/>
      <point x="1013" y="0" type="line" identifier="jtYkxiUX6G"/>
      <point x="1013" y="869" type="line" identifier="2G5L37c87I"/>
      <point x="340" y="869" type="line"/>
      <point x="340" y="1232" type="line"/>
      <point x="394" y="1374" type="line"/>
      <point x="1012" y="1374" type="line"/>
      <point x="1012" y="1600" type="line" identifier="oGvEEuxnYv"/>
      <point x="148" y="1600" type="line" identifier="xR3pEHbMJx"/>
      <point x="67" y="1243" type="line" identifier="KnMArb0tv8"/>
    </contour>
    <contour>
      <point x="739" y="679" type="line"/>
      <point x="739" y="226" type="line"/>
      <point x="340" y="226" type="line"/>
      <point x="340" y="679" type="line"/>
    </contour>
  </outline>
</glyph>
<glyph name="three.wide" format="2">
  <advance width="1092"/>
  <outline>
    <contour>
      <point x="69" y="0" type="line" identifier="O9abUc1nmN"/>
      <point x="1020" y="0" type="line" identifier="kMJYMTfXCq"/>
      <point x="1020" y="902" type="line" identifier="su2XmdS8e8"/>
      <point x="948" y="902" type="line" identifier="JQaOzDQqlF"/>
      <point x="948" y="1600" type="line" identifier="xg8x2Ki40p"/>
      <point x="59" y="1600" type="line" identifier="pE1XSRiy68"/>
      <point x="59" y="1374" type="line" identifier="7ogBYufWpl"/>
      <point x="675" y="1374" type="line" identifier="RHLvSX2Jv6"/>
      <point x="675" y="904" type="line" identifier="iic1IBkDqp"/>
      <point x="167" y="904" type="line" identifier="lRLJEhXMlO"/>
      <point x="167" y="679" type="line" identifier="8aKgEELrVU"/>
      <point x="747" y="679" type="line" identifier="Dm8zjmbhNr"/>
      <point x="747" y="226" type="line" identifier="xv9CFHiFgB"/>
      <point x="69" y="226" type="line" identifier="YajKQV3MHP"/>
    </contour>
  </outline>
</glyph>
<glyph name="two.wideskinny" format="2">
  <advance width="1017"/>
  <outline>
    <contour>
      <point x="57" y="0" type="line"/>
      <point x="972" y="0" type="line" identifier="pzdvPTirLJ"/>
      <point x="972" y="226" type="line"/>
      <point x="330" y="226" type="line"/>
      <point x="330" y="683" type="line"/>
      <point x="972" y="683" type="line" identifier="yyb1NCCI5w"/>
      <point x="972" y="1600" type="line" identifier="5FogYRSgkk"/>
      <point x="61" y="1600" type="line" identifier="svlFvrau4c"/>
      <point x="61" y="1374" type="line"/>
      <point x="699" y="1374" type="line"/>
      <point x="699" y="903" type="line"/>
      <point x="57" y="903" type="line" identifier="teVKnpBcVb"/>
    </contour>
  </outline>
</glyph>
